<?xml version="1.0" encoding="UTF-8" standalone="no"?>
<!-- Created with Inkscape (http://www.inkscape.org/) -->

<svg
   xmlns:dc="http://purl.org/dc/elements/1.1/"
   xmlns:cc="http://creativecommons.org/ns#"
   xmlns:rdf="http://www.w3.org/1999/02/22-rdf-syntax-ns#"
   xmlns:svg="http://www.w3.org/2000/svg"
   xmlns="http://www.w3.org/2000/svg"
   xmlns:sodipodi="http://sodipodi.sourceforge.net/DTD/sodipodi-0.dtd"
   xmlns:inkscape="http://www.inkscape.org/namespaces/inkscape"
   version="1.1"
   width="20"
   height="220.00099"
   id="svg2"
   inkscape:version="0.48.4 r9939"
   sodipodi:docname="buttons.svg">
  <sodipodi:namedview
     pagecolor="#ffffff"
     bordercolor="#666666"
     borderopacity="1"
     objecttolerance="10"
     gridtolerance="10"
     guidetolerance="10"
     inkscape:pageopacity="0"
     inkscape:pageshadow="2"
     inkscape:window-width="1881"
     inkscape:window-height="1056"
     id="namedview41"
     showgrid="false"
     inkscape:object-nodes="true"
     fit-margin-top="0"
     fit-margin-left="0"
     fit-margin-right="0"
     fit-margin-bottom="0"
     inkscape:zoom="1.9243043"
     inkscape:cx="-53.031306"
     inkscape:cy="90.68646"
     inkscape:window-x="39"
     inkscape:window-y="24"
     inkscape:window-maximized="1"
     inkscape:current-layer="svg2" />
  <defs
     id="defs4" />
  <metadata
     id="metadata7">
    <rdf:RDF>
      <cc:Work
         rdf:about="">
        <dc:format>image/svg+xml</dc:format>
        <dc:type
           rdf:resource="http://purl.org/dc/dcmitype/StillImage" />
        <dc:title />
      </cc:Work>
    </rdf:RDF>
  </metadata>
  <path
     sodipodi:type="arc"
     style="color:#000000;fill:#434e52;fill-opacity:1;fill-rule:nonzero;stroke:none;stroke-width:1;marker:none;visibility:visible;display:inline;overflow:visible;enable-background:accumulate"
     id="path3854"
     sodipodi:cx="-264.51117"
     sodipodi:cy="138.36406"
     sodipodi:rx="19.227728"
     sodipodi:ry="19.227728"
     d="m -245.28344,138.36406 a 19.227728,19.227728 0 1 1 -38.45546,0 19.227728,19.227728 0 1 1 38.45546,0 z"
     transform="matrix(0.52008225,0,0,0.52008225,147.56756,-61.960691)" />
  <text
     xml:space="preserve"
     style="font-size:22.11846542px;font-style:italic;font-variant:normal;font-weight:bold;font-stretch:normal;text-align:start;line-height:125%;letter-spacing:0px;word-spacing:0px;writing-mode:lr-tb;text-anchor:start;color:#000000;fill:#e0ecec;fill-opacity:1;fill-rule:nonzero;stroke:none;stroke-width:1;marker:none;visibility:visible;display:inline;overflow:visible;enable-background:accumulate;font-family:Bitstream Charter;-inkscape-font-specification:Bitstream Charter Bold Italic"
     x="6.4389386"
     y="17.940529"
     id="text2982"
     sodipodi:linespacing="125%"><tspan
       sodipodi:role="line"
       id="tspan2984"
       x="6.4389386"
       y="17.940529">i</tspan></text>
  <path
     transform="matrix(0.52008225,0,0,0.52008225,147.56756,-21.96049)"
     d="m -245.28344,138.36406 a 19.227728,19.227728 0 1 1 -38.45546,0 19.227728,19.227728 0 1 1 38.45546,0 z"
     sodipodi:ry="19.227728"
     sodipodi:rx="19.227728"
     sodipodi:cy="138.36406"
     sodipodi:cx="-264.51117"
     id="path2993"
     style="color:#000000;fill:#e0ecec;fill-opacity:1;fill-rule:nonzero;stroke:none;stroke-width:1.92277277;marker:none;visibility:visible;display:inline;overflow:visible;enable-background:accumulate"
     sodipodi:type="arc" />
  <path
     style="color:#000000;fill:#434e52;fill-opacity:1;fill-rule:nonzero;stroke:none;stroke-width:1;marker:none;visibility:visible;display:inline;overflow:visible;enable-background:accumulate"
     d="m 5.875011,44.125001 c -0.4483254,0 -0.8752202,0.18772 -1.21875,0.53125 -0.6870603,0.68706 -0.6870603,1.78169 0,2.46875 l 2.875,2.875 -2.875,2.875 c -0.6870596,0.68706 -0.6870603,1.78169 0,2.46875 0.6870603,0.68706 1.7816904,0.68706 2.46875,0 l 2.875,-2.875 2.875,2.875 c 0.68706,0.68706 1.78169,0.68706 2.46875,0 0.68706,-0.68706 0.68706,-1.78169 0,-2.46875 l -2.875,-2.875 2.875,-2.875 c 0.68706,-0.68706 0.68706,-1.78169 0,-2.46875 -0.68706,-0.68706 -1.78169,-0.68706 -2.46875,0 l -2.875,2.875 -2.875,-2.875 c -0.3435302,-0.34353 -0.8016746,-0.53125 -1.25,-0.53125 z"
     id="rect3002"
     inkscape:connector-curvature="0" />
  <path
     transform="matrix(0.52008225,0,0,0.52008225,147.56756,18.03971)"
     d="m -245.28344,138.36406 a 19.227728,19.227728 0 1 1 -38.45546,0 19.227728,19.227728 0 1 1 38.45546,0 z"
     sodipodi:ry="19.227728"
     sodipodi:rx="19.227728"
     sodipodi:cy="138.36406"
     sodipodi:cx="-264.51117"
     id="path3004"
     style="color:#000000;fill:#434e52;fill-opacity:1;fill-rule:nonzero;stroke:none;stroke-width:1.92277277;marker:none;visibility:visible;display:inline;overflow:visible;enable-background:accumulate"
     sodipodi:type="arc" />
  <path
     style="color:#000000;fill:#e0ecec;fill-opacity:1;fill-rule:nonzero;stroke:none;stroke-width:1;marker:none;visibility:visible;display:inline;overflow:visible;enable-background:accumulate"
     d="m 5.875011,84.125201 c -0.4483254,0 -0.8752202,0.18772 -1.21875,0.53125 -0.6870603,0.68706 -0.6870603,1.78169 0,2.46875 l 2.875,2.875 -2.875,2.875 c -0.6870596,0.68706 -0.6870603,1.78169 0,2.46875 0.6870603,0.68706 1.7816904,0.68706 2.46875,0 l 2.875,-2.875 2.875,2.875 c 0.68706,0.68706 1.78169,0.68706 2.46875,0 0.68706,-0.68706 0.68706,-1.78169 0,-2.46875 l -2.875,-2.875 2.875,-2.875 c 0.68706,-0.68706 0.68706,-1.78169 0,-2.46875 -0.68706,-0.68706 -1.78169,-0.68706 -2.46875,0 l -2.875,2.875 -2.875,-2.875 c -0.3435302,-0.34353 -0.8016746,-0.53125 -1.25,-0.53125 z"
     id="path3006"
     inkscape:connector-curvature="0" />
  <path
     sodipodi:type="arc"
     style="color:#000000;fill:#e0ecec;fill-opacity:1;fill-rule:nonzero;stroke:none;stroke-width:1.92277277;marker:none;visibility:visible;display:inline;overflow:visible;enable-background:accumulate"
     id="path2998"
     sodipodi:cx="-264.51117"
     sodipodi:cy="138.36406"
     sodipodi:rx="19.227728"
     sodipodi:ry="19.227728"
     d="m -245.28344,138.36406 a 19.227728,19.227728 0 1 1 -38.45546,0 19.227728,19.227728 0 1 1 38.45546,0 z"
     transform="matrix(0.52008225,0,0,0.52008225,147.56756,58.03991)" />
  <path
     style="fill:none;stroke:#434e52;stroke-width:3.5;stroke-linecap:round;stroke-linejoin:round;stroke-miterlimit:4;stroke-opacity:1;stroke-dasharray:none"
     d="m 4.8696327,128.94955 2.1863001,5.4761 8.0744442,-8.85012"
     id="path3002"
     inkscape:connector-curvature="0"
     sodipodi:nodetypes="ccc" />
  <path
     transform="matrix(0.52008225,0,0,0.52008225,147.56756,98.040109)"
     d="m -245.28344,138.36406 a 19.227728,19.227728 0 1 1 -38.45546,0 19.227728,19.227728 0 1 1 38.45546,0 z"
     sodipodi:ry="19.227728"
     sodipodi:rx="19.227728"
     sodipodi:cy="138.36406"
     sodipodi:cx="-264.51117"
     id="path3789"
     style="color:#000000;fill:#434e52;fill-opacity:1;fill-rule:nonzero;stroke:none;stroke-width:1.92277277;marker:none;visibility:visible;display:inline;overflow:visible;enable-background:accumulate"
     sodipodi:type="arc" />
  <path
     sodipodi:nodetypes="ccc"
     inkscape:connector-curvature="0"
     id="path3791"
     d="m 4.8696327,168.94974 2.1863001,5.4761 8.0744442,-8.85012"
     style="fill:none;stroke:#e0ecec;stroke-width:3.5;stroke-linecap:round;stroke-linejoin:round;stroke-miterlimit:4;stroke-opacity:1;stroke-dasharray:none" />
  <path
     sodipodi:type="arc"
     style="color:#000000;fill:#434e52;fill-opacity:1;fill-rule:nonzero;stroke:none;stroke-width:1.92277277;marker:none;visibility:visible;display:inline;overflow:visible;enable-background:accumulate"
     id="path2992"
     sodipodi:cx="-264.51117"
     sodipodi:cy="138.36406"
     sodipodi:rx="19.227728"
     sodipodi:ry="19.227728"
     d="m -245.28344,138.36406 a 19.227728,19.227728 0 1 1 -38.45546,0 19.227728,19.227728 0 1 1 38.45546,0 z"
     transform="matrix(0.52008225,0,0,0.52008225,147.56756,138.0403)" />
  <g
     id="g3766"
     transform="translate(0.52304213,-0.56695947)">
    <path
       sodipodi:nodetypes="cc"
       inkscape:connector-curvature="0"
       id="path2994"
       d="m 12.221882,213.41021 2.362382,2.34503"
       style="fill:none;stroke:#e0ecec;stroke-width:3.5;stroke-linecap:round;stroke-linejoin:round;stroke-miterlimit:4;stroke-opacity:1;stroke-dasharray:none" />
    <path
       transform="matrix(1.6285714,0,0,1.6285714,-3.3438951,-131.14895)"
       d="m 10.288908,208.93835 c 0,1.77576 -1.4395317,3.21529 -3.2152839,3.21529 -1.7757521,0 -3.2152836,-1.43953 -3.2152836,-3.21529 0,-1.77575 1.4395315,-3.21528 3.2152836,-3.21528 1.7757522,0 3.2152839,1.43953 3.2152839,3.21528 z"
       sodipodi:ry="3.2152836"
       sodipodi:rx="3.2152836"
       sodipodi:cy="208.93835"
       sodipodi:cx="7.0736241"
       id="path2996"
       style="color:#000000;fill:none;stroke:#e0ecec;stroke-width:1.43008769;stroke-miterlimit:4;stroke-opacity:1;stroke-dasharray:none;marker:none;visibility:visible;display:inline;overflow:visible;enable-background:accumulate"
       sodipodi:type="arc" />
  </g>
</svg>
