<?xml version="1.0" encoding="UTF-8" standalone="no"?>
<!-- Created with Inkscape (http://www.inkscape.org/) -->

<svg
   xmlns:dc="http://purl.org/dc/elements/1.1/"
   xmlns:cc="http://creativecommons.org/ns#"
   xmlns:rdf="http://www.w3.org/1999/02/22-rdf-syntax-ns#"
   xmlns:svg="http://www.w3.org/2000/svg"
   xmlns="http://www.w3.org/2000/svg"
   xmlns:sodipodi="http://sodipodi.sourceforge.net/DTD/sodipodi-0.dtd"
   xmlns:inkscape="http://www.inkscape.org/namespaces/inkscape"
   version="1.1"
   width="50.000072"
   height="350.00061"
   id="svg2"
   inkscape:version="0.48.4 r9939"
   sodipodi:docname="buttons.svg">
  <sodipodi:namedview
     pagecolor="#ffffff"
     bordercolor="#666666"
     borderopacity="1"
     objecttolerance="10"
     gridtolerance="10"
     guidetolerance="10"
     inkscape:pageopacity="0"
     inkscape:pageshadow="2"
     inkscape:window-width="1881"
     inkscape:window-height="1056"
     id="namedview41"
     showgrid="false"
     inkscape:object-nodes="true"
     fit-margin-top="0"
     fit-margin-left="0"
     fit-margin-right="0"
     fit-margin-bottom="0"
     inkscape:zoom="0.95358234"
     inkscape:cx="-157.36625"
     inkscape:cy="179.44"
     inkscape:window-x="39"
     inkscape:window-y="24"
     inkscape:window-maximized="1"
     inkscape:current-layer="svg2" />
  <defs
     id="defs4" />
  <metadata
     id="metadata7">
    <rdf:RDF>
      <cc:Work
         rdf:about="">
        <dc:format>image/svg+xml</dc:format>
        <dc:type
           rdf:resource="http://purl.org/dc/dcmitype/StillImage" />
        <dc:title />
      </cc:Work>
    </rdf:RDF>
  </metadata>
  <g
     id="g3841"
     transform="translate(1.0611667e-5,-3.1694294e-6)">
    <g
       transform="translate(-680.27395,-411.68824)"
       id="previousPage">
      <path
         d="m -895.24767,446.69495 a 18.182745,18.182745 0 1 1 -36.36549,0 18.182745,18.182745 0 1 1 36.36549,0 z"
         transform="matrix(1.3749299,0,0,1.3749299,1961.1768,-177.486)"
         id="path3010"
         style="color:#000000;fill:#e0ecec;fill-opacity:1;fill-rule:nonzero;stroke:none;stroke-width:1;marker:none;visibility:visible;display:inline;overflow:visible;enable-background:accumulate"
         inkscape:connector-curvature="0" />
      <path
         d="m 710.36367,423.76859 -10.17912,10.17911 -2.7406,2.74053 2.7406,2.74053 10.17912,10.17912 2.74046,-2.69704 -10.17897,-10.22261 10.17897,-10.17911 -2.74046,-2.74053 z"
         id="rect3012"
         style="color:#000000;fill:#434e52;fill-opacity:1;fill-rule:nonzero;stroke:none;stroke-width:1;marker:none;visibility:visible;display:inline;overflow:visible;enable-background:accumulate"
         inkscape:connector-curvature="0" />
    </g>
    <g
       transform="matrix(-1,0,0,1,730.274,-368.76166)"
       id="nextPage">
      <path
         d="m -895.24767,446.69495 a 18.182745,18.182745 0 1 1 -36.36549,0 18.182745,18.182745 0 1 1 36.36549,0 z"
         transform="matrix(1.3749299,0,0,1.3749299,1961.1768,-120.41238)"
         id="path3789"
         style="color:#000000;fill:#e0ecec;fill-opacity:1;fill-rule:nonzero;stroke:none;stroke-width:1;marker:none;visibility:visible;display:inline;overflow:visible;enable-background:accumulate"
         inkscape:connector-curvature="0" />
      <path
         d="m 710.36367,480.84221 -10.17912,10.17911 -2.7406,2.74053 2.7406,2.74053 10.17912,10.17912 2.74046,-2.69704 -10.17897,-10.22261 10.17897,-10.17911 -2.74046,-2.74053 z"
         id="path3791"
         style="color:#000000;fill:#434e52;fill-opacity:1;fill-rule:nonzero;stroke:none;stroke-width:1;marker:none;visibility:visible;display:inline;overflow:visible;enable-background:accumulate"
         inkscape:connector-curvature="0" />
    </g>
    <g
       transform="translate(-767.49984,-252.75131)"
       id="fullScreen">
      <g
         transform="matrix(-1,0,0,1,1497.7739,-16.010149)"
         id="g3801">
        <path
           d="m -895.24767,446.69495 a 18.182745,18.182745 0 1 1 -36.36549,0 18.182745,18.182745 0 1 1 36.36549,0 z"
           transform="matrix(1.3749299,0,0,1.3749299,1961.1768,-120.41238)"
           id="path3803"
           style="color:#000000;fill:#e0ecec;fill-opacity:1;fill-rule:nonzero;stroke:none;stroke-width:1;marker:none;visibility:visible;display:inline;overflow:visible;enable-background:accumulate"
           inkscape:connector-curvature="0" />
      </g>
      <path
         d="m 777.49994,462.75171 0,4 0,8 4,-4 4,4 4,-4 -4,-4 4,-4 -8,0 -4,0 z"
         id="rect3807"
         style="color:#000000;fill:#434e52;fill-opacity:1;fill-rule:nonzero;stroke:none;stroke-width:1;marker:none;visibility:visible;display:inline;overflow:visible;enable-background:accumulate"
         inkscape:connector-curvature="0" />
      <path
         d="m 807.49994,462.75171 0,4 0,8 -4,-4 -4,4 -4,-4 4,-4 -4,-4 8,0 4,0 z"
         id="path3816"
         style="color:#000000;fill:#434e52;fill-opacity:1;fill-rule:nonzero;stroke:none;stroke-width:1;marker:none;visibility:visible;display:inline;overflow:visible;enable-background:accumulate"
         inkscape:connector-curvature="0" />
      <path
         d="m 777.49994,492.75171 0,-4 0,-8 4,4 4,-4 4,4 -4,4 4,4 -8,0 -4,0 z"
         id="path3820"
         style="color:#000000;fill:#434e52;fill-opacity:1;fill-rule:nonzero;stroke:none;stroke-width:1;marker:none;visibility:visible;display:inline;overflow:visible;enable-background:accumulate"
         inkscape:connector-curvature="0" />
      <path
         d="m 807.49994,492.75171 0,-4 0,-8 -4,4 -4,-4 -4,4 4,4 -4,4 8,0 4,0 z"
         id="path3822"
         style="color:#000000;fill:#434e52;fill-opacity:1;fill-rule:nonzero;stroke:none;stroke-width:1;marker:none;visibility:visible;display:inline;overflow:visible;enable-background:accumulate"
         inkscape:connector-curvature="0" />
    </g>
    <g
       transform="translate(-676.73844,-311.19022)"
       id="restore">
      <g
         transform="matrix(-1,0,0,1,1407.0125,142.42896)"
         id="g3834">
        <path
           d="m -895.24767,446.69495 a 18.182745,18.182745 0 1 1 -36.36549,0 18.182745,18.182745 0 1 1 36.36549,0 z"
           transform="matrix(1.3749299,0,0,1.3749299,1961.1768,-120.41238)"
           id="path3836"
           style="color:#000000;fill:#e0ecec;fill-opacity:1;fill-rule:nonzero;stroke:none;stroke-width:1;marker:none;visibility:visible;display:inline;overflow:visible;enable-background:accumulate"
           inkscape:connector-curvature="0" />
      </g>
      <path
         d="m 698.73851,633.19082 0,-4 0,-8 -4,4 -4,-4 -4,4 4,4 -4,4 8,0 4,0 z"
         id="path3838"
         style="color:#000000;fill:#434e52;fill-opacity:1;fill-rule:nonzero;stroke:none;stroke-width:1;marker:none;visibility:visible;display:inline;overflow:visible;enable-background:accumulate"
         inkscape:connector-curvature="0" />
      <path
         d="m 704.73851,633.19082 0,-4 0,-8 4,4 4,-4 4,4 -4,4 4,4 -8,0 -4,0 z"
         id="path3840"
         style="color:#000000;fill:#434e52;fill-opacity:1;fill-rule:nonzero;stroke:none;stroke-width:1;marker:none;visibility:visible;display:inline;overflow:visible;enable-background:accumulate"
         inkscape:connector-curvature="0" />
      <path
         d="m 698.73851,639.19082 0,4 0,8 -4,-4 -4,4 -4,-4 4,-4 -4,-4 8,0 4,0 z"
         id="path3842"
         style="color:#000000;fill:#434e52;fill-opacity:1;fill-rule:nonzero;stroke:none;stroke-width:1;marker:none;visibility:visible;display:inline;overflow:visible;enable-background:accumulate"
         inkscape:connector-curvature="0" />
      <path
         d="m 704.73851,639.19082 0,4 0,8 4,-4 4,4 4,-4 -4,-4 4,-4 -8,0 -4,0 z"
         id="path3844"
         style="color:#000000;fill:#434e52;fill-opacity:1;fill-rule:nonzero;stroke:none;stroke-width:1;marker:none;visibility:visible;display:inline;overflow:visible;enable-background:accumulate"
         inkscape:connector-curvature="0" />
    </g>
  </g>
</svg>
