<?xml version="1.0" encoding="UTF-8" standalone="no"?>
<!-- Generator: Adobe Illustrator 16.0.0, SVG Export Plug-In . SVG Version: 6.00 Build 0)  -->

<svg
   xmlns:dc="http://purl.org/dc/elements/1.1/"
   xmlns:cc="http://creativecommons.org/ns#"
   xmlns:rdf="http://www.w3.org/1999/02/22-rdf-syntax-ns#"
   xmlns:svg="http://www.w3.org/2000/svg"
   xmlns="http://www.w3.org/2000/svg"
   xmlns:sodipodi="http://sodipodi.sourceforge.net/DTD/sodipodi-0.dtd"
   xmlns:inkscape="http://www.inkscape.org/namespaces/inkscape"
   version="1.1"
   x="0px"
   y="0px"
   width="19px"
   height="19px"
   viewBox="0 0 19 19"
   enable-background="new 0 0 19 19"
   xml:space="preserve"
   id="svg2"
   inkscape:version="0.48.5 r10040"
   sodipodi:docname="mnuMobile.svg"><metadata
   id="metadata554"><rdf:RDF><cc:Work
       rdf:about=""><dc:format>image/svg+xml</dc:format><dc:type
         rdf:resource="http://purl.org/dc/dcmitype/StillImage" /></cc:Work></rdf:RDF></metadata><defs
   id="defs552" /><sodipodi:namedview
   pagecolor="#ffffff"
   bordercolor="#666666"
   borderopacity="1"
   objecttolerance="10"
   gridtolerance="10"
   guidetolerance="10"
   inkscape:pageopacity="0"
   inkscape:pageshadow="2"
   inkscape:window-width="1834"
   inkscape:window-height="1053"
   id="namedview550"
   showgrid="false"
   inkscape:zoom="4.3915053"
   inkscape:cx="132.20176"
   inkscape:cy="-22.339986"
   inkscape:window-x="77"
   inkscape:window-y="-9"
   inkscape:window-maximized="1"
   inkscape:current-layer="svg2" />





<g
   id="mobile">
	<g
   id="g542">
		<path
   fill="#F2F2F2"
   d="M17.721,3.559c0,0.695-0.569,1.265-1.265,1.265H2.543c-0.695,0-1.264-0.569-1.264-1.265V1.504    c0-0.696,0.569-1.266,1.264-1.266h13.913c0.696,0,1.265,0.569,1.265,1.266V3.559z"
   id="path544" />
		<path
   fill="#F2F2F2"
   d="M17.721,17.471c0,0.696-0.569,1.266-1.265,1.266H2.543c-0.695,0-1.264-0.569-1.264-1.266v-2.055    c0-0.696,0.569-1.264,1.264-1.264h13.913c0.696,0,1.265,0.567,1.265,1.264V17.471z"
   id="path546" />
		<path
   fill="#F2F2F2"
   d="M17.721,10.515c0,0.696-0.569,1.266-1.265,1.266H2.543c-0.695,0-1.264-0.569-1.264-1.266V8.46    c0-0.695,0.569-1.265,1.264-1.265h13.913c0.696,0,1.265,0.569,1.265,1.265V10.515z"
   id="path548" />
	</g>
</g>
</svg>