<?xml version="1.0" encoding="UTF-8" standalone="no"?>
<!-- Generator: Adobe Illustrator 16.0.0, SVG Export Plug-In . SVG Version: 6.00 Build 0)  -->

<svg
   xmlns:dc="http://purl.org/dc/elements/1.1/"
   xmlns:cc="http://creativecommons.org/ns#"
   xmlns:rdf="http://www.w3.org/1999/02/22-rdf-syntax-ns#"
   xmlns:svg="http://www.w3.org/2000/svg"
   xmlns="http://www.w3.org/2000/svg"
   xmlns:sodipodi="http://sodipodi.sourceforge.net/DTD/sodipodi-0.dtd"
   xmlns:inkscape="http://www.inkscape.org/namespaces/inkscape"
   version="1.1"
   x="0px"
   y="0px"
   width="32px"
   height="160px"
   viewBox="0 0 32 160"
   enable-background="new 0 0 32 160"
   xml:space="preserve"
   id="svg2"
   inkscape:version="0.91 r13725"
   sodipodi:docname="toolbar-quiz.svg"><metadata
     id="metadata331"><rdf:RDF><cc:Work
         rdf:about=""><dc:format>image/svg+xml</dc:format><dc:type
           rdf:resource="http://purl.org/dc/dcmitype/StillImage" /></cc:Work></rdf:RDF></metadata><defs
     id="defs329" /><sodipodi:namedview
     pagecolor="#ffffff"
     bordercolor="#666666"
     borderopacity="1"
     objecttolerance="10"
     gridtolerance="10"
     guidetolerance="10"
     inkscape:pageopacity="0"
     inkscape:pageshadow="2"
     inkscape:window-width="1920"
     inkscape:window-height="1017"
     id="namedview327"
     showgrid="false"
     inkscape:zoom="0.52149125"
     inkscape:cx="36.229422"
     inkscape:cy="-321.48419"
     inkscape:window-x="1912"
     inkscape:window-y="-8"
     inkscape:window-maximized="1"
     inkscape:current-layer="svg2" /><g
     id="quiz"><g
       id="Validate"><path
         fill="#434E52"
         d="M1,14.998C1,23.285,7.72,30,16.002,30C24.284,30,31,23.285,31,14.998C31,6.718,24.284,0,16.002,0    C7.72,0,1,6.718,1,14.998z"
         id="path296" /><path
         fill="#E0ECEC"
         d="M25.701,6.66c-0.277-0.279-0.729-0.279-1.005,0l-10.59,10.541c-0.277,0.281-0.73,0.281-1.006,0    L8.46,12.477c-0.137-0.141-0.318-0.21-0.499-0.211c-0.183-0.001-0.368,0.068-0.508,0.211l-2.05,1.843    c-0.137,0.141-0.211,0.315-0.211,0.498c0,0.185,0.074,0.376,0.211,0.516l4.679,4.909c0.277,0.281,0.73,0.735,1.005,1.015    l2.013,2.027c0.276,0.277,0.728,0.277,1.005,0L27.713,9.702c0.278-0.278,0.278-0.736,0-1.014L25.701,6.66z"
         id="path298" /></g><g
       id="g300"><path
         fill="#434E52"
         stroke="#FFFFFF"
         d="M15.999,43.333C24.281,43.333,31,50.048,31,58.331c0,8.287-6.719,15.002-15.001,15.002    S1,66.618,1,58.331C1,50.048,7.716,43.333,15.999,43.333"
         id="path302" /><g
         id="_x32__audio_simple_repeat_2"><g
           id="g305"><path
             fill="#E0ECEC"
             d="M25.235,61.287c0.276-0.884,0.436-1.818,0.436-2.792c0-5.19-4.19-9.416-9.364-9.482v3.047      c3.495,0.065,6.32,2.925,6.32,6.436c0,0.487-0.063,0.957-0.167,1.413l-2.848-1.413l1.984,5.894l5.892-1.985L25.235,61.287z"
             id="path307" /><path
             fill="#E0ECEC"
             d="M10.77,58.815c0-0.489,0.063-0.958,0.167-1.415l2.848,1.415l-1.983-5.894l-5.891,1.985l2.251,1.115      c-0.276,0.885-0.437,1.82-0.437,2.793c0,5.191,4.19,9.414,9.365,9.481v-3.044C13.595,65.186,10.77,62.326,10.77,58.815z"
             id="path309" /></g></g></g><g
       id="Validate_1_"><path
         fill="#E0ECEC"
         d="M1,101.665c0,8.287,6.72,15.002,15.002,15.002c8.282,0,14.998-6.715,14.998-15.002    c0-8.28-6.716-14.998-14.998-14.998C7.72,86.667,1,93.385,1,101.665z"
         id="path312" /><path
         fill="#434E52"
         d="M25.701,93.327c-0.277-0.279-0.729-0.279-1.005,0l-10.59,10.541c-0.277,0.281-0.73,0.281-1.006,0    L8.46,99.144c-0.137-0.141-0.318-0.21-0.499-0.211c-0.183-0.001-0.368,0.068-0.508,0.211l-2.05,1.843    c-0.137,0.141-0.211,0.315-0.211,0.498c0,0.185,0.074,0.376,0.211,0.516l4.679,4.909c0.277,0.281,0.73,0.735,1.005,1.015    l2.013,2.027c0.276,0.277,0.728,0.277,1.005,0l13.607-13.582c0.278-0.278,0.278-0.736,0-1.014L25.701,93.327z"
         id="path314" /></g><g
       id="g316"><path
         fill="#E0ECEC"
         stroke="#FFFFFF"
         d="M15.999,130C24.281,130,31,136.715,31,144.998C31,153.285,24.281,160,15.999,160    S1,153.285,1,144.998C1,136.715,7.716,130,15.999,130"
         id="path318" /><g
         id="_x32__audio_simple_repeat_2_1_"><g
           id="g321"><path
             fill="#434E52"
             d="M25.235,147.954c0.276-0.884,0.436-1.818,0.436-2.792c0-5.19-4.19-9.416-9.364-9.482v3.047      c3.495,0.065,6.32,2.925,6.32,6.436c0,0.487-0.063,0.957-0.167,1.413l-2.848-1.413l1.984,5.894l5.892-1.985L25.235,147.954z"
             id="path323" /><path
             fill="#434E52"
             d="M10.77,145.482c0-0.489,0.063-0.958,0.167-1.415l2.848,1.415l-1.983-5.894l-5.891,1.985l2.251,1.115      c-0.276,0.885-0.437,1.82-0.437,2.793c0,5.191,4.19,9.414,9.365,9.481v-3.044C13.595,151.853,10.77,148.993,10.77,145.482z"
             id="path325" /></g></g></g></g></svg>